<svg id="Capa_1" enable-background="new 0 0 512 512" height="512" viewBox="0 0 512 512" width="512" xmlns="http://www.w3.org/2000/svg"><g><path d="m349.867 51.2h85.333c9.426 0 17.067 7.641 17.067 17.067v426.667c0 9.426-7.641 17.067-17.067 17.067h-307.2c-9.426 0-17.067-7.641-17.067-17.067v-34.134z" fill="#cfd7e6"/><path d="m435.2 51.2h-23.694c9.426 0 17.067 7.641 17.067 17.067v426.667c0 9.426-7.641 17.067-17.067 17.067h23.694c9.426 0 17.067-7.641 17.067-17.067v-426.667c0-9.426-7.641-17.067-17.067-17.067z" fill="#b4c2db"/><path d="m401.067 102.4v341.333c0 9.426-7.641 17.067-17.067 17.067h-307.2c-9.426 0-17.067-7.641-17.067-17.067v-426.666c0-9.426 7.641-17.067 17.067-17.067h221.867l38.767 72.513z" fill="#f3f5f9"/><path d="m401.067 102.4h-85.333c-9.426 0-17.067-7.641-17.067-17.067v-85.333z" fill="#b4c2db"/><g><g><path d="m179.492 434.393h-77.384c-8.805 0-15.968-7.163-15.968-15.968v-34.717c0-8.805 7.163-15.968 15.968-15.968h77.384c8.805 0 15.968 7.163 15.968 15.968v34.717c0 8.805-7.163 15.968-15.968 15.968zm-77.384-51.2c-.284 0-.515.231-.515.515v34.717c0 .284.231.515.515.515h77.384c.284 0 .515-.231.515-.515v-34.717c0-.284-.231-.515-.515-.515z" fill="#8db5ff"/></g></g><path d="m358.933 409.6h-18.133c-4.418 0-8-3.582-8-8v-18.133c0-4.418 3.582-8 8-8h18.133c4.418 0 8 3.582 8 8v18.133c0 4.418-3.581 8-8 8z" fill="#595353"/><path d="m248 68.267h-52.267c-4.418 0-8-3.582-8-8v-18.134c0-4.418 3.582-8 8-8h52.267c4.418 0 8 3.582 8 8v18.133c0 4.419-3.582 8.001-8 8.001z" fill="#595353"/><g><g fill="#68d9c0"><path d="m230.4 111.74c-65.43 0-118.66 53.23-118.66 118.66s53.23 118.66 118.66 118.66c65.429 0 118.659-53.231 118.659-118.66s-53.23-118.66-118.659-118.66zm0 221.867c-56.908 0-103.207-46.299-103.207-103.207s46.299-103.207 103.207-103.207 103.206 46.298 103.206 103.207-46.297 103.207-103.206 103.207z"/><path d="m220.641 177.91c-.026-.072-.054-.142-.084-.213-1.556-3.782-5.202-6.223-9.291-6.223-.004 0-.008 0-.011 0-4.093.005-7.739 2.455-9.289 6.243-.024.058-.047.117-.069.175l-38.45 100.958c-1.519 3.988.483 8.452 4.471 9.97.905.345 1.834.508 2.749.508 3.113 0 6.047-1.896 7.221-4.978l7.681-20.168h51.115l7.603 20.145c1.506 3.993 5.966 6.008 9.957 4.501 3.992-1.507 6.007-5.965 4.5-9.957zm-29.187 70.82 19.789-51.959 19.609 51.959z"/><path d="m290.134 180.007h-9.341v-9.34c0-4.267-3.459-7.726-7.726-7.726s-7.726 3.459-7.726 7.726v9.34h-9.341c-4.268 0-7.726 3.459-7.726 7.726s3.459 7.726 7.726 7.726h9.34v9.34c0 4.267 3.459 7.726 7.726 7.726s7.726-3.459 7.726-7.726v-9.34h9.341c4.268 0 7.726-3.459 7.726-7.726s-3.458-7.726-7.725-7.726z"/></g></g><g fill="#403939"><path d="m247.759 34.133h-23.694c4.551 0 8.241 3.69 8.241 8.241v17.65c0 4.552-3.69 8.242-8.241 8.242h23.694c4.551 0 8.241-3.69 8.241-8.242v-17.65c0-4.551-3.69-8.241-8.241-8.241z"/><path d="m358.692 375.467h-17.65c-1.068 0-2.085.21-3.022.58 3.055 1.206 5.22 4.178 5.22 7.662v17.651c0 3.484-2.165 6.456-5.22 7.662.937.37 1.954.58 3.022.58h17.65c4.552 0 8.241-3.69 8.241-8.241v-17.651c0-4.554-3.69-8.243-8.241-8.243z"/></g></g></svg>